<svg xmlns="http://www.w3.org/2000/svg" xmlns:xlink="http://www.w3.org/1999/xlink" width="700" zoomAndPan="magnify" viewBox="0 0 525 337.499995" height="450" preserveAspectRatio="xMidYMid meet" version="1.0"><defs><g/><clipPath id="9e91324106"><path d="M 0.242188 109 L 1 109 L 1 110 L 0.242188 110 Z M 0.242188 109 " clip-rule="nonzero"/></clipPath><clipPath id="f15f9dfcc0"><rect x="0" width="218" y="0" height="155"/></clipPath><clipPath id="6740e452c4"><rect x="0" width="477" y="0" height="136"/></clipPath></defs><g transform="matrix(1, 0, 0, 1, 154, 160)"><g clip-path="url(#f15f9dfcc0)"><g clip-path="url(#9e91324106)"><g fill="#EAF6FB" fill-opacity="1"><g transform="translate(0.367845, 109.817173)"><g/></g></g></g><g fill="#EAF6FB" fill-opacity="1"><g transform="translate(22.39795, 109.817173)"><g><path d="M 52.40625 8.484375 L 52.1875 8.484375 C 51.59375 8.484375 51.09375 8.242188 50.6875 7.765625 C 50.289062 7.285156 50.128906 6.753906 50.203125 6.171875 C 50.785156 -4.253906 51.257812 -13.15625 51.625 -20.53125 C 52 -27.90625 52.1875 -34.457031 52.1875 -40.1875 C 52.1875 -45.320312 52.019531 -50.035156 51.6875 -54.328125 C 51.351562 -58.617188 50.859375 -62.96875 50.203125 -67.375 C 49.691406 -70.53125 49.066406 -72.617188 48.328125 -73.640625 C 47.597656 -74.671875 47.050781 -75.222656 46.6875 -75.296875 C 45.507812 -75.453125 43.835938 -73.289062 41.671875 -68.8125 C 39.503906 -64.332031 37.351562 -57.539062 35.21875 -48.4375 C 33.09375 -39.34375 31.445312 -27.820312 30.28125 -13.875 C 30.132812 -12.550781 29.4375 -11.890625 28.1875 -11.890625 C 27.519531 -11.890625 26.945312 -12.128906 26.46875 -12.609375 C 26 -13.085938 25.800781 -13.65625 25.875 -14.3125 C 25.945312 -15.195312 26 -16.242188 26.03125 -17.453125 C 26.070312 -18.660156 26.09375 -20 26.09375 -21.46875 C 26.09375 -24.476562 26.019531 -27.835938 25.875 -31.546875 C 25.726562 -35.253906 25.46875 -38.976562 25.09375 -42.71875 C 24.726562 -46.457031 24.289062 -49.90625 23.78125 -53.0625 C 23.269531 -56.21875 22.644531 -58.75 21.90625 -60.65625 C 21.175781 -62.570312 20.332031 -63.53125 19.375 -63.53125 C 18.5 -63.53125 17.632812 -62.351562 16.78125 -60 C 15.9375 -57.65625 15.054688 -54.425781 14.140625 -50.3125 C 13.222656 -46.195312 12.285156 -41.515625 11.328125 -36.265625 C 10.378906 -31.023438 9.390625 -25.445312 8.359375 -19.53125 C 7.335938 -13.625 6.238281 -7.703125 5.0625 -1.765625 C 4.988281 -0.585938 4.253906 0 2.859375 0 C 1.609375 0 0.910156 -0.660156 0.765625 -1.984375 C 0.472656 -4.617188 0.269531 -7.347656 0.15625 -10.171875 C 0.0507812 -13.003906 0 -15.925781 0 -18.9375 C 0 -25.394531 0.238281 -32.015625 0.71875 -38.796875 C 1.195312 -45.585938 1.820312 -52.25 2.59375 -58.78125 C 3.363281 -65.320312 4.113281 -71.414062 4.84375 -77.0625 C 5.207031 -78.457031 6.050781 -79.082031 7.375 -78.9375 C 8.769531 -78.570312 9.394531 -77.726562 9.25 -76.40625 C 7.488281 -64.289062 6.257812 -53.773438 5.5625 -44.859375 C 4.863281 -35.941406 4.476562 -28.253906 4.40625 -21.796875 C 6.164062 -31.484375 7.648438 -39.773438 8.859375 -46.671875 C 10.066406 -53.578125 11.457031 -58.84375 13.03125 -62.46875 C 14.613281 -66.101562 16.765625 -67.921875 19.484375 -67.921875 C 21.390625 -67.921875 22.945312 -67.078125 24.15625 -65.390625 C 25.375 -63.703125 26.332031 -61.554688 27.03125 -58.953125 C 27.726562 -56.347656 28.257812 -53.648438 28.625 -50.859375 C 28.988281 -48.078125 29.28125 -45.582031 29.5 -43.375 C 29.644531 -44.1875 29.8125 -45.050781 30 -45.96875 C 30.1875 -46.882812 30.425781 -47.929688 30.71875 -49.109375 C 31.445312 -52.035156 32.304688 -55.257812 33.296875 -58.78125 C 34.296875 -62.3125 35.453125 -65.65625 36.765625 -68.8125 C 38.085938 -71.96875 39.570312 -74.570312 41.21875 -76.625 C 42.875 -78.675781 44.695312 -79.703125 46.6875 -79.703125 C 48.664062 -79.703125 50.3125 -78.691406 51.625 -76.671875 C 52.945312 -74.660156 53.90625 -71.78125 54.5 -68.03125 C 55.226562 -63.414062 55.738281 -58.867188 56.03125 -54.390625 C 56.332031 -49.910156 56.484375 -45.066406 56.484375 -39.859375 C 56.484375 -33.835938 56.296875 -27.117188 55.921875 -19.703125 C 55.554688 -12.296875 55.117188 -3.597656 54.609375 6.390625 C 54.460938 7.785156 53.726562 8.484375 52.40625 8.484375 Z M 52.40625 8.484375 "/></g></g></g><g fill="#EAF6FB" fill-opacity="1"><g transform="translate(84.380637, 109.817173)"><g><path d="M 16.296875 -2.859375 L 16.296875 -2.09375 C 16.296875 -1.351562 16.054688 -0.816406 15.578125 -0.484375 C 15.097656 -0.160156 14.601562 0 14.09375 0 C 13.507812 0 12.976562 -0.160156 12.5 -0.484375 C 12.019531 -0.816406 11.816406 -1.390625 11.890625 -2.203125 L 11.890625 -2.859375 C 9.765625 -2.785156 7.78125 -2.75 5.9375 -2.75 C 4.101562 -2.75 2.675781 -2.710938 1.65625 -2.640625 L 1.546875 -2.640625 C 0.148438 -2.640625 -0.582031 -3.335938 -0.65625 -4.734375 L -0.65625 -4.953125 C -0.65625 -6.203125 0.0390625 -6.898438 1.4375 -7.046875 C 2.457031 -7.117188 3.90625 -7.15625 5.78125 -7.15625 C 7.65625 -7.15625 9.691406 -7.191406 11.890625 -7.265625 C 11.960938 -11.148438 12.015625 -14.394531 12.046875 -17 C 12.085938 -19.613281 12.109375 -21.875 12.109375 -23.78125 C 12.109375 -25.6875 12.144531 -27.535156 12.21875 -29.328125 C 12.289062 -31.128906 12.398438 -33.128906 12.546875 -35.328125 C 12.691406 -37.535156 12.894531 -40.21875 13.15625 -43.375 C 13.414062 -46.53125 13.726562 -50.472656 14.09375 -55.203125 C 14.457031 -59.941406 14.929688 -65.757812 15.515625 -72.65625 C 13.390625 -72.582031 11.375 -72.507812 9.46875 -72.4375 C 7.5625 -72.363281 5.984375 -72.289062 4.734375 -72.21875 L 4.625 -72.21875 C 3.300781 -72.21875 2.566406 -72.878906 2.421875 -74.203125 L 2.421875 -74.421875 C 2.421875 -75.742188 3.117188 -76.476562 4.515625 -76.625 C 5.835938 -76.695312 7.503906 -76.769531 9.515625 -76.84375 C 11.535156 -76.914062 13.648438 -76.988281 15.859375 -77.0625 C 16.222656 -78.382812 16.957031 -79.046875 18.0625 -79.046875 C 19.226562 -79.046875 19.957031 -78.457031 20.25 -77.28125 C 22.382812 -77.425781 24.457031 -77.515625 26.46875 -77.546875 C 28.488281 -77.585938 30.125 -77.6875 31.375 -77.84375 C 31.957031 -77.84375 32.488281 -77.640625 32.96875 -77.234375 C 33.445312 -76.828125 33.6875 -76.332031 33.6875 -75.75 L 33.6875 -75.53125 C 33.6875 -74.28125 33.023438 -73.582031 31.703125 -73.4375 C 30.304688 -73.289062 28.582031 -73.179688 26.53125 -73.109375 C 24.476562 -73.035156 22.273438 -72.957031 19.921875 -72.875 C 19.335938 -65.90625 18.859375 -60.035156 18.484375 -55.265625 C 18.117188 -50.492188 17.804688 -46.507812 17.546875 -43.3125 C 17.296875 -40.125 17.097656 -37.425781 16.953125 -35.21875 C 16.804688 -33.019531 16.695312 -31.039062 16.625 -29.28125 C 16.550781 -27.519531 16.515625 -25.6875 16.515625 -23.78125 C 16.515625 -21.875 16.492188 -19.613281 16.453125 -17 C 16.421875 -14.394531 16.367188 -11.148438 16.296875 -7.265625 C 18.492188 -7.335938 20.566406 -7.375 22.515625 -7.375 C 24.460938 -7.375 25.945312 -7.410156 26.96875 -7.484375 L 27.1875 -7.484375 C 28.4375 -7.484375 29.132812 -6.785156 29.28125 -5.390625 C 29.28125 -3.921875 28.582031 -3.148438 27.1875 -3.078125 C 26.09375 -3.003906 24.570312 -2.96875 22.625 -2.96875 C 20.675781 -2.96875 18.566406 -2.929688 16.296875 -2.859375 Z M 16.296875 -2.859375 "/></g></g></g><g fill="#EAF6FB" fill-opacity="1"><g transform="translate(116.417874, 109.817173)"><g><path d="M 2.203125 0 L 2.09375 0 C 1.507812 0 1.015625 -0.21875 0.609375 -0.65625 C 0.203125 -1.101562 0 -1.617188 0 -2.203125 C 0.289062 -12.847656 0.523438 -23.523438 0.703125 -34.234375 C 0.890625 -44.953125 1.132812 -55.632812 1.4375 -66.28125 C 1.4375 -66.863281 1.65625 -67.375 2.09375 -67.8125 C 2.53125 -68.257812 3.046875 -68.484375 3.640625 -68.484375 C 4.222656 -68.484375 4.734375 -68.242188 5.171875 -67.765625 C 5.609375 -67.285156 5.828125 -66.753906 5.828125 -66.171875 C 5.535156 -56.035156 5.316406 -45.941406 5.171875 -35.890625 C 5.316406 -36.703125 5.535156 -37.65625 5.828125 -38.75 C 6.128906 -39.851562 6.425781 -41.066406 6.71875 -42.390625 C 7.375 -45.097656 8.140625 -48.046875 9.015625 -51.234375 C 9.898438 -54.429688 10.910156 -57.644531 12.046875 -60.875 C 13.191406 -64.101562 14.421875 -67.078125 15.734375 -69.796875 C 17.054688 -72.515625 18.488281 -74.71875 20.03125 -76.40625 C 21.570312 -78.09375 23.1875 -79.007812 24.875 -79.15625 C 25.976562 -79.226562 27.226562 -78.820312 28.625 -77.9375 C 30.019531 -77.0625 31.304688 -75.117188 32.484375 -72.109375 C 34.242188 -67.484375 35.453125 -62.398438 36.109375 -56.859375 C 36.773438 -51.316406 37.109375 -45.578125 37.109375 -39.640625 C 37.109375 -33.398438 36.867188 -27.140625 36.390625 -20.859375 C 35.910156 -14.585938 35.453125 -8.476562 35.015625 -2.53125 C 34.867188 -1.207031 34.171875 -0.546875 32.921875 -0.546875 C 32.253906 -0.546875 31.679688 -0.765625 31.203125 -1.203125 C 30.734375 -1.648438 30.535156 -2.203125 30.609375 -2.859375 C 31.046875 -8.804688 31.503906 -14.914062 31.984375 -21.1875 C 32.460938 -27.46875 32.703125 -33.691406 32.703125 -39.859375 C 32.703125 -45.578125 32.40625 -51.023438 31.8125 -56.203125 C 31.226562 -61.378906 30.09375 -66.128906 28.40625 -70.453125 C 28.039062 -71.484375 27.5625 -72.472656 26.96875 -73.421875 C 26.382812 -74.378906 25.800781 -74.820312 25.21875 -74.75 C 25.0625 -74.75 24.707031 -74.582031 24.15625 -74.25 C 23.613281 -73.925781 22.882812 -73.15625 21.96875 -71.9375 C 21.050781 -70.726562 20.003906 -68.734375 18.828125 -65.953125 C 16.921875 -61.472656 15.195312 -56.5 13.65625 -51.03125 C 12.113281 -45.5625 10.753906 -40.054688 9.578125 -34.515625 C 8.398438 -28.972656 7.425781 -23.851562 6.65625 -19.15625 C 5.882812 -14.457031 5.316406 -10.566406 4.953125 -7.484375 C 4.585938 -4.398438 4.40625 -2.601562 4.40625 -2.09375 C 4.40625 -1.507812 4.179688 -1.015625 3.734375 -0.609375 C 3.296875 -0.203125 2.785156 0 2.203125 0 Z M 2.203125 0 "/></g></g></g><g fill="#EAF6FB" fill-opacity="1"><g transform="translate(160.455313, 109.817173)"><g><path d="M -3.078125 -2.859375 C -3.742188 -3.296875 -4.078125 -3.921875 -4.078125 -4.734375 C -4.078125 -5.171875 -3.96875 -5.535156 -3.75 -5.828125 C -3.300781 -6.566406 -2.675781 -6.9375 -1.875 -6.9375 C -1.351562 -6.9375 -0.945312 -6.828125 -0.65625 -6.609375 C 0.59375 -5.796875 1.910156 -5.222656 3.296875 -4.890625 C 4.691406 -4.566406 6.125 -4.40625 7.59375 -4.40625 C 11.257812 -4.40625 15 -5.191406 18.8125 -6.765625 C 22.632812 -8.347656 26.085938 -10.273438 29.171875 -12.546875 C 35.335938 -17.097656 39.796875 -22.253906 42.546875 -28.015625 C 45.304688 -33.773438 46.6875 -39.375 46.6875 -44.8125 C 46.6875 -49.4375 45.785156 -53.691406 43.984375 -57.578125 C 42.179688 -61.460938 39.59375 -64.5625 36.21875 -66.875 C 32.84375 -69.1875 28.804688 -70.34375 24.109375 -70.34375 C 23.003906 -70.34375 21.898438 -70.285156 20.796875 -70.171875 C 19.703125 -70.066406 18.640625 -69.867188 17.609375 -69.578125 C 14.972656 -54.753906 13.65625 -39.707031 13.65625 -24.4375 C 13.65625 -22.75 13.671875 -21.023438 13.703125 -19.265625 C 13.742188 -17.503906 13.800781 -15.78125 13.875 -14.09375 C 13.875 -12.625 13.175781 -11.851562 11.78125 -11.78125 L 11.671875 -11.78125 C 11.085938 -11.78125 10.570312 -12 10.125 -12.4375 C 9.6875 -12.875 9.46875 -13.390625 9.46875 -13.984375 C 9.394531 -15.671875 9.335938 -17.359375 9.296875 -19.046875 C 9.265625 -20.734375 9.25 -22.421875 9.25 -24.109375 C 9.25 -38.859375 10.457031 -53.5 12.875 -68.03125 C 10.96875 -67.226562 9.242188 -66.253906 7.703125 -65.109375 C 6.160156 -63.972656 4.953125 -62.640625 4.078125 -61.109375 C 3.554688 -60.367188 2.894531 -60 2.09375 -60 C 1.800781 -60 1.46875 -60.109375 1.09375 -60.328125 C 0.363281 -60.617188 0 -61.242188 0 -62.203125 C 0 -62.640625 0.0703125 -63.003906 0.21875 -63.296875 C 1.6875 -65.796875 3.613281 -67.832031 6 -69.40625 C 8.382812 -70.988281 10.972656 -72.222656 13.765625 -73.109375 C 13.910156 -73.835938 14.035156 -74.53125 14.140625 -75.1875 C 14.253906 -75.851562 14.382812 -76.550781 14.53125 -77.28125 C 14.820312 -78.457031 15.554688 -79.046875 16.734375 -79.046875 C 17.316406 -79.046875 17.8125 -78.804688 18.21875 -78.328125 C 18.625 -77.847656 18.828125 -77.316406 18.828125 -76.734375 C 18.828125 -75.773438 18.679688 -74.96875 18.390625 -74.3125 C 19.410156 -74.457031 20.398438 -74.582031 21.359375 -74.6875 C 22.316406 -74.800781 23.234375 -74.859375 24.109375 -74.859375 C 29.691406 -74.859375 34.5 -73.484375 38.53125 -70.734375 C 42.570312 -67.984375 45.691406 -64.3125 47.890625 -59.71875 C 50.085938 -55.132812 51.1875 -50.128906 51.1875 -44.703125 C 51.1875 -38.535156 49.664062 -32.296875 46.625 -25.984375 C 43.582031 -19.671875 38.644531 -14.019531 31.8125 -9.03125 C 28.4375 -6.53125 24.601562 -4.398438 20.3125 -2.640625 C 16.019531 -0.878906 11.78125 0 7.59375 0 C 3.632812 0 0.078125 -0.953125 -3.078125 -2.859375 Z M -3.078125 -2.859375 "/></g></g></g></g></g><g transform="matrix(1, 0, 0, 1, 22, 47)"><g clip-path="url(#6740e452c4)"><g fill="#EAF6FB" fill-opacity="1"><g transform="translate(5.741162, 96.561051)"><g><path d="M 14.671875 0 L 14.484375 0 C 13.265625 0 12.65625 -0.578125 12.65625 -1.734375 C 12.34375 -5.953125 12.132812 -10.15625 12.03125 -14.34375 C 11.9375 -18.53125 11.890625 -22.734375 11.890625 -26.953125 C 10.484375 -26.253906 9.046875 -25.597656 7.578125 -24.984375 C 6.109375 -24.378906 4.570312 -23.757812 2.96875 -23.125 C 2.457031 -22.863281 1.960938 -22.703125 1.484375 -22.640625 C 1.003906 -22.578125 0.539062 -22.546875 0.09375 -22.546875 C -1.1875 -22.546875 -2.175781 -22.894531 -2.875 -23.59375 C -3.582031 -24.300781 -3.9375 -25.101562 -3.9375 -26 C -3.9375 -26.445312 -3.835938 -26.894531 -3.640625 -27.34375 C -3.128906 -28.550781 -1.945312 -29.664062 -0.09375 -30.6875 C 1.757812 -31.71875 4.0625 -32.234375 6.8125 -32.234375 C 8.664062 -32.234375 10.390625 -32.007812 11.984375 -31.5625 C 12.179688 -42.625 12.851562 -53.625 14 -64.5625 C 12.789062 -64.363281 11.609375 -64.117188 10.453125 -63.828125 C 9.304688 -63.546875 8.1875 -63.242188 7.09375 -62.921875 C 7.03125 -62.859375 6.835938 -62.828125 6.515625 -62.828125 C 5.492188 -62.828125 4.890625 -63.273438 4.703125 -64.171875 C 4.640625 -64.234375 4.609375 -64.425781 4.609375 -64.75 C 4.609375 -65.644531 5.054688 -66.25 5.953125 -66.5625 C 7.359375 -67.007812 8.75 -67.394531 10.125 -67.71875 C 11.5 -68.039062 12.921875 -68.296875 14.390625 -68.484375 L 14.671875 -70.796875 C 14.992188 -71.941406 15.664062 -72.515625 16.6875 -72.515625 C 17.257812 -72.515625 17.722656 -72.304688 18.078125 -71.890625 C 18.429688 -71.472656 18.578125 -70.976562 18.515625 -70.40625 L 18.328125 -68.875 C 18.578125 -68.9375 18.828125 -68.96875 19.078125 -68.96875 C 19.335938 -68.96875 19.597656 -68.96875 19.859375 -68.96875 L 21.484375 -68.96875 C 28.066406 -68.96875 33.164062 -67.800781 36.78125 -65.46875 C 40.394531 -63.132812 42.203125 -60.046875 42.203125 -56.203125 C 42.203125 -52.429688 40.171875 -48.195312 36.109375 -43.5 C 32.054688 -38.800781 25.644531 -34.117188 16.875 -29.453125 C 17.769531 -28.941406 18.632812 -28.394531 19.46875 -27.8125 C 20.300781 -27.238281 21.289062 -26.503906 22.4375 -25.609375 C 23.59375 -24.710938 25.066406 -23.492188 26.859375 -21.953125 C 28.648438 -20.421875 30.90625 -18.441406 33.625 -16.015625 C 36.34375 -13.585938 39.75 -10.582031 43.84375 -7 C 44.28125 -6.550781 44.5 -6.070312 44.5 -5.5625 C 44.5 -5.238281 44.34375 -4.820312 44.03125 -4.3125 C 43.644531 -3.863281 43.164062 -3.640625 42.59375 -3.640625 C 42.007812 -3.640625 41.5625 -3.800781 41.25 -4.125 C 37.15625 -7.707031 33.75 -10.679688 31.03125 -13.046875 C 28.3125 -15.410156 26.117188 -17.328125 24.453125 -18.796875 C 22.796875 -20.265625 21.453125 -21.429688 20.421875 -22.296875 C 19.398438 -23.160156 18.550781 -23.832031 17.875 -24.3125 C 17.207031 -24.789062 16.492188 -25.253906 15.734375 -25.703125 C 15.734375 -21.742188 15.78125 -17.796875 15.875 -13.859375 C 15.96875 -9.929688 16.144531 -5.984375 16.40625 -2.015625 L 16.40625 -1.828125 C 16.40625 -0.609375 15.828125 0 14.671875 0 Z M 15.828125 -33.28125 C 17.867188 -34.375 20.148438 -35.71875 22.671875 -37.3125 C 25.203125 -38.914062 27.664062 -40.722656 30.0625 -42.734375 C 32.46875 -44.742188 34.4375 -46.867188 35.96875 -49.109375 C 37.5 -51.347656 38.265625 -53.617188 38.265625 -55.921875 C 38.265625 -58.410156 37.398438 -60.3125 35.671875 -61.625 C 33.953125 -62.9375 31.796875 -63.847656 29.203125 -64.359375 C 26.617188 -64.867188 24.046875 -65.125 21.484375 -65.125 L 19.65625 -65.125 C 19.40625 -65.125 19.132812 -65.125 18.84375 -65.125 C 18.5625 -65.125 18.257812 -65.09375 17.9375 -65.03125 C 17.363281 -59.726562 16.898438 -54.4375 16.546875 -49.15625 C 16.191406 -43.882812 15.953125 -38.59375 15.828125 -33.28125 Z M 0.1875 -26.28125 C 0.445312 -26.28125 0.894531 -26.375 1.53125 -26.5625 C 2.175781 -26.757812 3.582031 -27.367188 5.75 -28.390625 C 4.28125 -28.265625 3.066406 -27.960938 2.109375 -27.484375 C 1.148438 -27.003906 0.507812 -26.601562 0.1875 -26.28125 Z M 0.1875 -26.28125 "/></g></g></g><g fill="#EAF6FB" fill-opacity="1"><g transform="translate(50.246595, 96.561051)"><g><path d="M 18.515625 0 C 13.847656 0 10.203125 -0.640625 7.578125 -1.921875 C 4.953125 -3.203125 3.128906 -4.957031 2.109375 -7.1875 C 1.085938 -9.425781 0.578125 -12.019531 0.578125 -14.96875 C 0.578125 -18.613281 1.085938 -22.59375 2.109375 -26.90625 C 3.128906 -31.21875 4.117188 -35.644531 5.078125 -40.1875 L 4.3125 -40.09375 C 3.164062 -40.09375 2.523438 -40.632812 2.390625 -41.71875 L 2.390625 -41.921875 C 2.390625 -42.941406 2.9375 -43.613281 4.03125 -43.9375 C 4.351562 -43.9375 4.671875 -43.953125 4.984375 -43.984375 C 5.304688 -44.015625 5.628906 -44.0625 5.953125 -44.125 L 9.6875 -61.78125 L 2.109375 -60.90625 L 1.921875 -60.90625 C 0.765625 -60.90625 0.125 -61.453125 0 -62.546875 L 0 -62.734375 C 0 -63.753906 0.578125 -64.425781 1.734375 -64.75 L 10.546875 -65.703125 L 10.84375 -67.34375 C 11.09375 -68.550781 11.859375 -69.0625 13.140625 -68.875 C 13.648438 -68.75 14.046875 -68.460938 14.328125 -68.015625 C 14.617188 -67.566406 14.703125 -67.082031 14.578125 -66.5625 C 14.578125 -66.3125 14.546875 -66.15625 14.484375 -66.09375 C 22.023438 -66.851562 29.664062 -67.425781 37.40625 -67.8125 L 37.59375 -67.8125 C 38.6875 -67.8125 39.296875 -67.207031 39.421875 -66 L 39.421875 -65.796875 C 39.421875 -64.710938 38.8125 -64.109375 37.59375 -63.984375 C 33.570312 -63.785156 29.59375 -63.523438 25.65625 -63.203125 C 21.726562 -62.890625 17.75 -62.539062 13.71875 -62.15625 L 9.96875 -44.609375 C 10.800781 -44.671875 12 -44.765625 13.5625 -44.890625 C 15.132812 -45.015625 16.816406 -45.125 18.609375 -45.21875 C 20.398438 -45.320312 22.03125 -45.4375 23.5 -45.5625 C 24.96875 -45.6875 26.023438 -45.78125 26.671875 -45.84375 L 26.953125 -45.84375 C 28.035156 -45.84375 28.675781 -45.300781 28.875 -44.21875 L 28.875 -44.03125 C 28.875 -42.875 28.328125 -42.234375 27.234375 -42.109375 C 26.472656 -41.984375 25.289062 -41.851562 23.6875 -41.71875 C 22.09375 -41.59375 20.351562 -41.46875 18.46875 -41.34375 C 16.582031 -41.21875 14.789062 -41.085938 13.09375 -40.953125 C 11.394531 -40.828125 10.066406 -40.703125 9.109375 -40.578125 C 8.023438 -35.460938 6.953125 -30.742188 5.890625 -26.421875 C 4.835938 -22.109375 4.3125 -18.320312 4.3125 -15.0625 C 4.3125 -11.414062 5.332031 -8.632812 7.375 -6.71875 C 9.425781 -4.800781 13.234375 -3.84375 18.796875 -3.84375 C 28.003906 -3.84375 36.832031 -5.921875 45.28125 -10.078125 C 45.46875 -10.140625 45.640625 -10.1875 45.796875 -10.21875 C 45.960938 -10.25 46.078125 -10.265625 46.140625 -10.265625 C 46.910156 -10.265625 47.484375 -9.910156 47.859375 -9.203125 C 47.929688 -9.015625 47.984375 -8.851562 48.015625 -8.71875 C 48.046875 -8.59375 48.0625 -8.46875 48.0625 -8.34375 C 48.0625 -7.570312 47.707031 -7 47 -6.625 C 42.59375 -4.382812 37.972656 -2.71875 33.140625 -1.625 C 28.316406 -0.539062 23.441406 0 18.515625 0 Z M 18.515625 0 "/></g></g></g><g fill="#EAF6FB" fill-opacity="1"><g transform="translate(89.860271, 96.561051)"><g><path d="M 9.40625 0 L 9.203125 0 C 7.347656 0 5.878906 -0.78125 4.796875 -2.34375 C 3.710938 -3.914062 2.910156 -5.820312 2.390625 -8.0625 C 1.878906 -10.300781 1.53125 -12.378906 1.34375 -14.296875 C 1.15625 -15.953125 1.023438 -17.691406 0.953125 -19.515625 C 0.890625 -21.335938 0.859375 -23.242188 0.859375 -25.234375 C 0.859375 -28.867188 0.96875 -32.585938 1.1875 -36.390625 C 1.414062 -40.203125 1.691406 -43.878906 2.015625 -47.421875 C 2.335938 -50.972656 2.703125 -54.1875 3.109375 -57.0625 C 3.523438 -59.945312 3.925781 -62.285156 4.3125 -64.078125 C 4.570312 -65.097656 5.210938 -65.609375 6.234375 -65.609375 C 6.867188 -65.609375 7.363281 -65.367188 7.71875 -64.890625 C 8.070312 -64.410156 8.1875 -63.882812 8.0625 -63.3125 C 7.476562 -60.363281 6.929688 -56.75 6.421875 -52.46875 C 5.910156 -48.1875 5.492188 -43.644531 5.171875 -38.84375 C 4.859375 -34.050781 4.703125 -29.414062 4.703125 -24.9375 C 4.703125 -20.976562 4.84375 -17.398438 5.125 -14.203125 C 5.414062 -11.003906 5.910156 -8.476562 6.609375 -6.625 C 7.316406 -4.769531 8.210938 -3.84375 9.296875 -3.84375 C 10.003906 -3.84375 10.597656 -4.113281 11.078125 -4.65625 C 11.554688 -5.195312 12.035156 -6.3125 12.515625 -8 C 12.992188 -9.695312 13.550781 -12.238281 14.1875 -15.625 C 14.832031 -19.019531 15.648438 -23.53125 16.640625 -29.15625 C 17.628906 -34.78125 18.894531 -41.816406 20.4375 -50.265625 C 20.6875 -51.285156 21.320312 -51.796875 22.34375 -51.796875 C 22.925781 -51.796875 23.40625 -51.601562 23.78125 -51.21875 C 24.164062 -50.832031 24.328125 -50.351562 24.265625 -49.78125 C 24.203125 -48.820312 24.15625 -47.570312 24.125 -46.03125 C 24.09375 -44.5 24.078125 -42.773438 24.078125 -40.859375 C 24.078125 -37.921875 24.140625 -34.722656 24.265625 -31.265625 C 24.390625 -27.816406 24.613281 -24.441406 24.9375 -21.140625 C 25.257812 -17.847656 25.707031 -14.988281 26.28125 -12.5625 C 26.851562 -10.132812 27.617188 -8.441406 28.578125 -7.484375 C 28.773438 -7.285156 28.921875 -7.171875 29.015625 -7.140625 C 29.109375 -7.109375 29.1875 -7.09375 29.25 -7.09375 C 30.40625 -7.09375 31.460938 -8.097656 32.421875 -10.109375 C 33.378906 -12.128906 34.257812 -14.832031 35.0625 -18.21875 C 35.863281 -21.613281 36.582031 -25.40625 37.21875 -29.59375 C 37.851562 -33.78125 38.394531 -38.128906 38.84375 -42.640625 C 39.289062 -47.148438 39.640625 -51.515625 39.890625 -55.734375 C 40.148438 -59.953125 40.316406 -63.722656 40.390625 -67.046875 C 40.390625 -67.554688 40.578125 -68.003906 40.953125 -68.390625 C 41.335938 -68.773438 41.785156 -68.96875 42.296875 -68.96875 C 42.804688 -68.96875 43.253906 -68.773438 43.640625 -68.390625 C 44.023438 -68.003906 44.21875 -67.554688 44.21875 -67.046875 C 44.15625 -65.390625 44.054688 -63.023438 43.921875 -59.953125 C 43.796875 -56.878906 43.585938 -53.375 43.296875 -49.4375 C 43.015625 -45.507812 42.648438 -41.4375 42.203125 -37.21875 C 41.753906 -33 41.160156 -28.890625 40.421875 -24.890625 C 39.691406 -20.890625 38.816406 -17.257812 37.796875 -14 C 36.773438 -10.738281 35.578125 -8.148438 34.203125 -6.234375 C 32.828125 -4.316406 31.210938 -3.328125 29.359375 -3.265625 C 27.878906 -3.203125 26.628906 -3.773438 25.609375 -4.984375 C 24.585938 -6.203125 23.753906 -7.832031 23.109375 -9.875 C 22.472656 -11.925781 21.976562 -14.117188 21.625 -16.453125 C 21.28125 -18.785156 21.023438 -21.054688 20.859375 -23.265625 C 20.703125 -25.472656 20.59375 -27.34375 20.53125 -28.875 C 19.507812 -23.113281 18.644531 -18.363281 17.9375 -14.625 C 17.226562 -10.882812 16.519531 -7.941406 15.8125 -5.796875 C 15.113281 -3.660156 14.269531 -2.160156 13.28125 -1.296875 C 12.289062 -0.429688 11 0 9.40625 0 Z M 9.40625 0 "/></g></g></g><g fill="#EAF6FB" fill-opacity="1"><g transform="translate(136.379962, 96.561051)"><g><path d="M 14.671875 0 L 14.484375 0 C 13.265625 0 12.65625 -0.578125 12.65625 -1.734375 C 12.34375 -5.953125 12.132812 -10.15625 12.03125 -14.34375 C 11.9375 -18.53125 11.890625 -22.734375 11.890625 -26.953125 C 10.484375 -26.253906 9.046875 -25.597656 7.578125 -24.984375 C 6.109375 -24.378906 4.570312 -23.757812 2.96875 -23.125 C 2.457031 -22.863281 1.960938 -22.703125 1.484375 -22.640625 C 1.003906 -22.578125 0.539062 -22.546875 0.09375 -22.546875 C -1.1875 -22.546875 -2.175781 -22.894531 -2.875 -23.59375 C -3.582031 -24.300781 -3.9375 -25.101562 -3.9375 -26 C -3.9375 -26.445312 -3.835938 -26.894531 -3.640625 -27.34375 C -3.128906 -28.550781 -1.945312 -29.664062 -0.09375 -30.6875 C 1.757812 -31.71875 4.0625 -32.234375 6.8125 -32.234375 C 8.664062 -32.234375 10.390625 -32.007812 11.984375 -31.5625 C 12.179688 -42.625 12.851562 -53.625 14 -64.5625 C 12.789062 -64.363281 11.609375 -64.117188 10.453125 -63.828125 C 9.304688 -63.546875 8.1875 -63.242188 7.09375 -62.921875 C 7.03125 -62.859375 6.835938 -62.828125 6.515625 -62.828125 C 5.492188 -62.828125 4.890625 -63.273438 4.703125 -64.171875 C 4.640625 -64.234375 4.609375 -64.425781 4.609375 -64.75 C 4.609375 -65.644531 5.054688 -66.25 5.953125 -66.5625 C 7.359375 -67.007812 8.75 -67.394531 10.125 -67.71875 C 11.5 -68.039062 12.921875 -68.296875 14.390625 -68.484375 L 14.671875 -70.796875 C 14.992188 -71.941406 15.664062 -72.515625 16.6875 -72.515625 C 17.257812 -72.515625 17.722656 -72.304688 18.078125 -71.890625 C 18.429688 -71.472656 18.578125 -70.976562 18.515625 -70.40625 L 18.328125 -68.875 C 18.578125 -68.9375 18.828125 -68.96875 19.078125 -68.96875 C 19.335938 -68.96875 19.597656 -68.96875 19.859375 -68.96875 L 21.484375 -68.96875 C 28.066406 -68.96875 33.164062 -67.800781 36.78125 -65.46875 C 40.394531 -63.132812 42.203125 -60.046875 42.203125 -56.203125 C 42.203125 -52.429688 40.171875 -48.195312 36.109375 -43.5 C 32.054688 -38.800781 25.644531 -34.117188 16.875 -29.453125 C 17.769531 -28.941406 18.632812 -28.394531 19.46875 -27.8125 C 20.300781 -27.238281 21.289062 -26.503906 22.4375 -25.609375 C 23.59375 -24.710938 25.066406 -23.492188 26.859375 -21.953125 C 28.648438 -20.421875 30.90625 -18.441406 33.625 -16.015625 C 36.34375 -13.585938 39.75 -10.582031 43.84375 -7 C 44.28125 -6.550781 44.5 -6.070312 44.5 -5.5625 C 44.5 -5.238281 44.34375 -4.820312 44.03125 -4.3125 C 43.644531 -3.863281 43.164062 -3.640625 42.59375 -3.640625 C 42.007812 -3.640625 41.5625 -3.800781 41.25 -4.125 C 37.15625 -7.707031 33.75 -10.679688 31.03125 -13.046875 C 28.3125 -15.410156 26.117188 -17.328125 24.453125 -18.796875 C 22.796875 -20.265625 21.453125 -21.429688 20.421875 -22.296875 C 19.398438 -23.160156 18.550781 -23.832031 17.875 -24.3125 C 17.207031 -24.789062 16.492188 -25.253906 15.734375 -25.703125 C 15.734375 -21.742188 15.78125 -17.796875 15.875 -13.859375 C 15.96875 -9.929688 16.144531 -5.984375 16.40625 -2.015625 L 16.40625 -1.828125 C 16.40625 -0.609375 15.828125 0 14.671875 0 Z M 15.828125 -33.28125 C 17.867188 -34.375 20.148438 -35.71875 22.671875 -37.3125 C 25.203125 -38.914062 27.664062 -40.722656 30.0625 -42.734375 C 32.46875 -44.742188 34.4375 -46.867188 35.96875 -49.109375 C 37.5 -51.347656 38.265625 -53.617188 38.265625 -55.921875 C 38.265625 -58.410156 37.398438 -60.3125 35.671875 -61.625 C 33.953125 -62.9375 31.796875 -63.847656 29.203125 -64.359375 C 26.617188 -64.867188 24.046875 -65.125 21.484375 -65.125 L 19.65625 -65.125 C 19.40625 -65.125 19.132812 -65.125 18.84375 -65.125 C 18.5625 -65.125 18.257812 -65.09375 17.9375 -65.03125 C 17.363281 -59.726562 16.898438 -54.4375 16.546875 -49.15625 C 16.191406 -43.882812 15.953125 -38.59375 15.828125 -33.28125 Z M 0.1875 -26.28125 C 0.445312 -26.28125 0.894531 -26.375 1.53125 -26.5625 C 2.175781 -26.757812 3.582031 -27.367188 5.75 -28.390625 C 4.28125 -28.265625 3.066406 -27.960938 2.109375 -27.484375 C 1.148438 -27.003906 0.507812 -26.601562 0.1875 -26.28125 Z M 0.1875 -26.28125 "/></g></g></g><g fill="#EAF6FB" fill-opacity="1"><g transform="translate(180.885389, 96.561051)"><g><path d="M 14.203125 -2.5 L 14.203125 -1.828125 C 14.203125 -1.179688 13.992188 -0.710938 13.578125 -0.421875 C 13.160156 -0.140625 12.726562 0 12.28125 0 C 11.769531 0 11.304688 -0.140625 10.890625 -0.421875 C 10.472656 -0.710938 10.296875 -1.210938 10.359375 -1.921875 L 10.359375 -2.5 C 8.503906 -2.425781 6.773438 -2.390625 5.171875 -2.390625 C 3.578125 -2.390625 2.332031 -2.359375 1.4375 -2.296875 L 1.34375 -2.296875 C 0.125 -2.296875 -0.515625 -2.90625 -0.578125 -4.125 L -0.578125 -4.3125 C -0.578125 -5.40625 0.03125 -6.015625 1.25 -6.140625 C 2.144531 -6.203125 3.40625 -6.234375 5.03125 -6.234375 C 6.664062 -6.234375 8.441406 -6.265625 10.359375 -6.328125 C 10.421875 -9.722656 10.46875 -12.550781 10.5 -14.8125 C 10.53125 -17.082031 10.546875 -19.050781 10.546875 -20.71875 C 10.546875 -22.382812 10.578125 -24 10.640625 -25.5625 C 10.710938 -27.125 10.8125 -28.863281 10.9375 -30.78125 C 11.0625 -32.707031 11.234375 -35.046875 11.453125 -37.796875 C 11.679688 -40.546875 11.953125 -43.984375 12.265625 -48.109375 C 12.585938 -52.234375 13.007812 -57.300781 13.53125 -63.3125 C 11.675781 -63.25 9.914062 -63.179688 8.25 -63.109375 C 6.582031 -63.046875 5.207031 -62.984375 4.125 -62.921875 L 4.03125 -62.921875 C 2.875 -62.921875 2.234375 -63.5 2.109375 -64.65625 L 2.109375 -64.84375 C 2.109375 -65.988281 2.71875 -66.628906 3.9375 -66.765625 C 5.082031 -66.828125 6.535156 -66.890625 8.296875 -66.953125 C 10.054688 -67.015625 11.894531 -67.078125 13.8125 -67.140625 C 14.132812 -68.296875 14.773438 -68.875 15.734375 -68.875 C 16.753906 -68.875 17.394531 -68.363281 17.65625 -67.34375 C 19.507812 -67.46875 21.3125 -67.546875 23.0625 -67.578125 C 24.820312 -67.609375 26.25 -67.6875 27.34375 -67.8125 C 27.851562 -67.8125 28.316406 -67.632812 28.734375 -67.28125 C 29.148438 -66.9375 29.359375 -66.507812 29.359375 -66 L 29.359375 -65.796875 C 29.359375 -64.710938 28.78125 -64.109375 27.625 -63.984375 C 26.40625 -63.847656 24.898438 -63.75 23.109375 -63.6875 C 21.328125 -63.625 19.410156 -63.5625 17.359375 -63.5 C 16.847656 -57.425781 16.429688 -52.3125 16.109375 -48.15625 C 15.796875 -44 15.523438 -40.53125 15.296875 -37.75 C 15.078125 -34.96875 14.898438 -32.613281 14.765625 -30.6875 C 14.640625 -28.769531 14.546875 -27.046875 14.484375 -25.515625 C 14.421875 -23.984375 14.390625 -22.382812 14.390625 -20.71875 C 14.390625 -19.050781 14.375 -17.082031 14.34375 -14.8125 C 14.3125 -12.550781 14.265625 -9.722656 14.203125 -6.328125 C 16.117188 -6.390625 17.921875 -6.421875 19.609375 -6.421875 C 21.304688 -6.421875 22.601562 -6.453125 23.5 -6.515625 L 23.6875 -6.515625 C 24.78125 -6.515625 25.390625 -5.910156 25.515625 -4.703125 C 25.515625 -3.421875 24.90625 -2.75 23.6875 -2.6875 C 22.726562 -2.625 21.398438 -2.59375 19.703125 -2.59375 C 18.015625 -2.59375 16.179688 -2.5625 14.203125 -2.5 Z M 14.203125 -2.5 "/></g></g></g><g fill="#EAF6FB" fill-opacity="1"><g transform="translate(208.797193, 96.561051)"><g><path d="M 23.3125 0 C 22.800781 0.125 22.546875 0.1875 22.546875 0.1875 C 21.835938 0.1875 21.226562 -0.191406 20.71875 -0.953125 C 19.757812 -3.066406 19.28125 -7.484375 19.28125 -14.203125 C 19.28125 -19.054688 19.453125 -25.351562 19.796875 -33.09375 C 20.148438 -40.832031 20.550781 -50.328125 21 -61.578125 C 13.332031 -60.941406 5.5 -60.367188 -2.5 -59.859375 L -2.59375 -59.859375 C -3.101562 -59.859375 -3.550781 -60.03125 -3.9375 -60.375 C -4.320312 -60.726562 -4.515625 -61.160156 -4.515625 -61.671875 L -4.515625 -61.875 C -4.515625 -62.957031 -3.9375 -63.5625 -2.78125 -63.6875 C 1.25 -63.945312 5.242188 -64.21875 9.203125 -64.5 C 13.171875 -64.789062 17.171875 -65.097656 21.203125 -65.421875 L 21.296875 -66.46875 C 21.296875 -66.976562 21.488281 -67.425781 21.875 -67.8125 C 22.257812 -68.195312 22.707031 -68.359375 23.21875 -68.296875 C 23.726562 -68.296875 24.171875 -68.085938 24.546875 -67.671875 C 24.929688 -67.253906 25.125 -66.789062 25.125 -66.28125 L 25.03125 -65.796875 C 29.1875 -66.179688 33.296875 -66.566406 37.359375 -66.953125 C 41.421875 -67.335938 45.5 -67.785156 49.59375 -68.296875 L 49.78125 -68.296875 C 50.9375 -68.296875 51.578125 -67.753906 51.703125 -66.671875 L 51.703125 -66.46875 C 51.703125 -65.445312 51.125 -64.773438 49.96875 -64.453125 C 45.8125 -63.941406 41.65625 -63.476562 37.5 -63.0625 C 33.34375 -62.644531 29.15625 -62.28125 24.9375 -61.96875 C 24.425781 -51.03125 23.992188 -41.597656 23.640625 -33.671875 C 23.296875 -25.742188 23.125 -19.285156 23.125 -14.296875 C 23.125 -11.222656 23.203125 -8.726562 23.359375 -6.8125 C 23.515625 -4.894531 23.816406 -3.488281 24.265625 -2.59375 C 24.390625 -2.082031 24.453125 -1.828125 24.453125 -1.828125 C 24.453125 -1.117188 24.070312 -0.507812 23.3125 0 Z M 23.3125 0 "/></g></g></g><g fill="#EAF6FB" fill-opacity="1"><g transform="translate(247.835356, 96.561051)"><g><path d="M 18.515625 0 C 13.847656 0 10.203125 -0.640625 7.578125 -1.921875 C 4.953125 -3.203125 3.128906 -4.957031 2.109375 -7.1875 C 1.085938 -9.425781 0.578125 -12.019531 0.578125 -14.96875 C 0.578125 -18.613281 1.085938 -22.59375 2.109375 -26.90625 C 3.128906 -31.21875 4.117188 -35.644531 5.078125 -40.1875 L 4.3125 -40.09375 C 3.164062 -40.09375 2.523438 -40.632812 2.390625 -41.71875 L 2.390625 -41.921875 C 2.390625 -42.941406 2.9375 -43.613281 4.03125 -43.9375 C 4.351562 -43.9375 4.671875 -43.953125 4.984375 -43.984375 C 5.304688 -44.015625 5.628906 -44.0625 5.953125 -44.125 L 9.6875 -61.78125 L 2.109375 -60.90625 L 1.921875 -60.90625 C 0.765625 -60.90625 0.125 -61.453125 0 -62.546875 L 0 -62.734375 C 0 -63.753906 0.578125 -64.425781 1.734375 -64.75 L 10.546875 -65.703125 L 10.84375 -67.34375 C 11.09375 -68.550781 11.859375 -69.0625 13.140625 -68.875 C 13.648438 -68.75 14.046875 -68.460938 14.328125 -68.015625 C 14.617188 -67.566406 14.703125 -67.082031 14.578125 -66.5625 C 14.578125 -66.3125 14.546875 -66.15625 14.484375 -66.09375 C 22.023438 -66.851562 29.664062 -67.425781 37.40625 -67.8125 L 37.59375 -67.8125 C 38.6875 -67.8125 39.296875 -67.207031 39.421875 -66 L 39.421875 -65.796875 C 39.421875 -64.710938 38.8125 -64.109375 37.59375 -63.984375 C 33.570312 -63.785156 29.59375 -63.523438 25.65625 -63.203125 C 21.726562 -62.890625 17.75 -62.539062 13.71875 -62.15625 L 9.96875 -44.609375 C 10.800781 -44.671875 12 -44.765625 13.5625 -44.890625 C 15.132812 -45.015625 16.816406 -45.125 18.609375 -45.21875 C 20.398438 -45.320312 22.03125 -45.4375 23.5 -45.5625 C 24.96875 -45.6875 26.023438 -45.78125 26.671875 -45.84375 L 26.953125 -45.84375 C 28.035156 -45.84375 28.675781 -45.300781 28.875 -44.21875 L 28.875 -44.03125 C 28.875 -42.875 28.328125 -42.234375 27.234375 -42.109375 C 26.472656 -41.984375 25.289062 -41.851562 23.6875 -41.71875 C 22.09375 -41.59375 20.351562 -41.46875 18.46875 -41.34375 C 16.582031 -41.21875 14.789062 -41.085938 13.09375 -40.953125 C 11.394531 -40.828125 10.066406 -40.703125 9.109375 -40.578125 C 8.023438 -35.460938 6.953125 -30.742188 5.890625 -26.421875 C 4.835938 -22.109375 4.3125 -18.320312 4.3125 -15.0625 C 4.3125 -11.414062 5.332031 -8.632812 7.375 -6.71875 C 9.425781 -4.800781 13.234375 -3.84375 18.796875 -3.84375 C 28.003906 -3.84375 36.832031 -5.921875 45.28125 -10.078125 C 45.46875 -10.140625 45.640625 -10.1875 45.796875 -10.21875 C 45.960938 -10.25 46.078125 -10.265625 46.140625 -10.265625 C 46.910156 -10.265625 47.484375 -9.910156 47.859375 -9.203125 C 47.929688 -9.015625 47.984375 -8.851562 48.015625 -8.71875 C 48.046875 -8.59375 48.0625 -8.46875 48.0625 -8.34375 C 48.0625 -7.570312 47.707031 -7 47 -6.625 C 42.59375 -4.382812 37.972656 -2.71875 33.140625 -1.625 C 28.316406 -0.539062 23.441406 0 18.515625 0 Z M 18.515625 0 "/></g></g></g><g fill="#EAF6FB" fill-opacity="1"><g transform="translate(287.449027, 96.561051)"><g/></g></g><g fill="#EAF6FB" fill-opacity="1"><g transform="translate(306.632389, 96.561051)"><g><path d="M 18.515625 -3.453125 C 17.234375 -2.234375 15.9375 -1.351562 14.625 -0.8125 C 13.3125 -0.269531 12.050781 0 10.84375 0 C 8.789062 0 7.046875 -0.671875 5.609375 -2.015625 C 4.171875 -3.359375 3.453125 -5.148438 3.453125 -7.390625 C 3.453125 -9.628906 4.125 -11.800781 5.46875 -13.90625 C 6.8125 -16.019531 8.550781 -17.988281 10.6875 -19.8125 C 12.832031 -21.632812 15.101562 -23.234375 17.5 -24.609375 C 19.90625 -25.984375 22.128906 -27.050781 24.171875 -27.8125 C 24.679688 -31.207031 25.078125 -34.742188 25.359375 -38.421875 C 25.648438 -42.097656 26.019531 -45.851562 26.46875 -49.6875 C 25 -47.125 23.320312 -44.546875 21.4375 -41.953125 C 19.550781 -39.367188 17.488281 -37.210938 15.25 -35.484375 C 13.007812 -33.765625 10.675781 -32.90625 8.25 -32.90625 C 6.519531 -32.90625 4.789062 -33.476562 3.0625 -34.625 C 1.976562 -35.394531 1.195312 -36.382812 0.71875 -37.59375 C 0.238281 -38.8125 0 -40.253906 0 -41.921875 C 0 -44.535156 0.476562 -47.535156 1.4375 -50.921875 C 2.394531 -54.316406 3.515625 -57.898438 4.796875 -61.671875 C 4.921875 -62.179688 5.222656 -62.546875 5.703125 -62.765625 C 6.179688 -62.992188 6.675781 -63.046875 7.1875 -62.921875 C 8.34375 -62.472656 8.757812 -61.675781 8.4375 -60.53125 C 7.925781 -58.988281 7.300781 -57.097656 6.5625 -54.859375 C 5.832031 -52.628906 5.195312 -50.363281 4.65625 -48.0625 C 4.113281 -45.757812 3.84375 -43.710938 3.84375 -41.921875 C 3.84375 -39.867188 4.320312 -38.492188 5.28125 -37.796875 C 6.101562 -37.148438 7.09375 -36.828125 8.25 -36.828125 C 10.226562 -36.828125 12.304688 -37.816406 14.484375 -39.796875 C 16.660156 -41.785156 18.738281 -44.328125 20.71875 -47.421875 C 22.695312 -50.523438 24.46875 -53.835938 26.03125 -57.359375 C 27.601562 -60.878906 28.773438 -64.171875 29.546875 -67.234375 C 29.671875 -67.753906 29.957031 -68.15625 30.40625 -68.4375 C 30.851562 -68.726562 31.332031 -68.8125 31.84375 -68.6875 C 32.351562 -68.550781 32.753906 -68.257812 33.046875 -67.8125 C 33.335938 -67.363281 33.414062 -66.882812 33.28125 -66.375 C 32.195312 -61.769531 31.382812 -57.421875 30.84375 -53.328125 C 30.300781 -49.234375 29.851562 -45.21875 29.5 -41.28125 C 29.144531 -37.351562 28.710938 -33.28125 28.203125 -29.0625 C 29.671875 -29.507812 31.109375 -29.875 32.515625 -30.15625 C 33.921875 -30.445312 35.328125 -30.753906 36.734375 -31.078125 C 36.867188 -31.078125 36.953125 -31.09375 36.984375 -31.125 C 37.015625 -31.15625 37.09375 -31.171875 37.21875 -31.171875 C 38.175781 -31.171875 38.785156 -30.660156 39.046875 -29.640625 L 39.046875 -29.25 C 39.046875 -28.289062 38.5625 -27.65625 37.59375 -27.34375 C 35.9375 -27.019531 34.273438 -26.664062 32.609375 -26.28125 C 30.953125 -25.894531 29.289062 -25.445312 27.625 -24.9375 C 26.988281 -21.039062 26.015625 -17.15625 24.703125 -13.28125 C 23.390625 -9.414062 21.328125 -6.140625 18.515625 -3.453125 Z M 15.921875 -6.234375 C 18.160156 -8.410156 19.820312 -11.03125 20.90625 -14.09375 C 22 -17.164062 22.832031 -20.238281 23.40625 -23.3125 C 17.457031 -20.625 13.300781 -17.820312 10.9375 -14.90625 C 8.570312 -12 7.390625 -9.554688 7.390625 -7.578125 C 7.390625 -6.421875 7.707031 -5.488281 8.34375 -4.78125 C 8.976562 -4.082031 9.8125 -3.734375 10.84375 -3.734375 C 12.4375 -3.734375 14.128906 -4.566406 15.921875 -6.234375 Z M 15.921875 -6.234375 "/></g></g></g><g fill="#EAF6FB" fill-opacity="1"><g transform="translate(342.601217, 96.561051)"><g><path d="M 37.40625 -20.046875 C 34.976562 -13.140625 31.941406 -8.070312 28.296875 -4.84375 C 24.648438 -1.613281 21.066406 0 17.546875 0 C 14.992188 0 12.613281 -0.828125 10.40625 -2.484375 C 8.195312 -4.148438 6.421875 -6.566406 5.078125 -9.734375 C 3.734375 -12.898438 3.0625 -16.753906 3.0625 -21.296875 C 3.0625 -22.703125 3.140625 -24.1875 3.296875 -25.75 C 3.460938 -27.320312 3.707031 -28.9375 4.03125 -30.59375 C 2.625 -32.832031 1.597656 -35.132812 0.953125 -37.5 C 0.316406 -39.863281 0 -42.164062 0 -44.40625 C 0 -47.664062 0.570312 -50.78125 1.71875 -53.75 C 2.875 -56.726562 4.441406 -59.351562 6.421875 -61.625 C 8.410156 -63.894531 10.632812 -65.6875 13.09375 -67 C 15.550781 -68.3125 18.09375 -68.96875 20.71875 -68.96875 C 23.28125 -68.96875 25.789062 -68.265625 28.25 -66.859375 C 30.707031 -65.453125 32.929688 -63.117188 34.921875 -59.859375 C 36.773438 -56.785156 38.128906 -53.363281 38.984375 -49.59375 C 39.847656 -45.820312 40.28125 -41.921875 40.28125 -37.890625 C 40.28125 -35.710938 40.148438 -33.519531 39.890625 -31.3125 C 39.640625 -29.113281 39.257812 -26.988281 38.75 -24.9375 C 40.15625 -25.644531 41.578125 -26.460938 43.015625 -27.390625 C 44.453125 -28.316406 45.941406 -29.382812 47.484375 -30.59375 C 47.734375 -30.851562 48.148438 -30.984375 48.734375 -30.984375 C 49.429688 -30.984375 49.910156 -30.757812 50.171875 -30.3125 C 50.484375 -29.800781 50.640625 -29.382812 50.640625 -29.0625 C 50.640625 -28.488281 50.382812 -28.007812 49.875 -27.625 C 45.46875 -24.175781 41.3125 -21.648438 37.40625 -20.046875 Z M 34.34375 -23.015625 C 35.8125 -28.003906 36.546875 -32.960938 36.546875 -37.890625 C 36.546875 -41.273438 36.226562 -44.441406 35.59375 -47.390625 C 34.3125 -53.710938 32.28125 -58.234375 29.5 -60.953125 C 26.71875 -63.671875 23.789062 -65.03125 20.71875 -65.03125 C 17.96875 -65.03125 15.296875 -64.117188 12.703125 -62.296875 C 10.117188 -60.472656 8.007812 -58.023438 6.375 -54.953125 C 4.75 -51.890625 3.9375 -48.472656 3.9375 -44.703125 C 3.9375 -41.828125 4.445312 -39.046875 5.46875 -36.359375 C 5.976562 -37.828125 6.519531 -39.296875 7.09375 -40.765625 C 7.675781 -42.234375 8.347656 -43.671875 9.109375 -45.078125 C 9.429688 -45.785156 9.976562 -46.140625 10.75 -46.140625 C 11.125 -46.140625 11.441406 -46.039062 11.703125 -45.84375 C 12.335938 -45.394531 12.65625 -44.851562 12.65625 -44.21875 C 12.65625 -44.15625 12.640625 -44.039062 12.609375 -43.875 C 12.578125 -43.71875 12.53125 -43.546875 12.46875 -43.359375 C 11.507812 -41.503906 10.660156 -39.550781 9.921875 -37.5 C 9.191406 -35.457031 8.601562 -33.410156 8.15625 -31.359375 C 10.007812 -28.742188 12.582031 -26.492188 15.875 -24.609375 C 19.164062 -22.722656 22.859375 -21.78125 26.953125 -21.78125 C 29.578125 -21.78125 32.039062 -22.191406 34.34375 -23.015625 Z M 32.703125 -18.609375 C 31.804688 -18.347656 30.863281 -18.171875 29.875 -18.078125 C 28.882812 -17.984375 27.878906 -17.9375 26.859375 -17.9375 C 22.953125 -17.9375 19.320312 -18.734375 15.96875 -20.328125 C 12.613281 -21.929688 9.722656 -23.976562 7.296875 -26.46875 C 7.097656 -24.675781 7 -22.984375 7 -21.390625 C 7 -15.765625 8.035156 -11.429688 10.109375 -8.390625 C 12.191406 -5.359375 14.707031 -3.84375 17.65625 -3.84375 C 20.144531 -3.84375 22.71875 -5.007812 25.375 -7.34375 C 28.03125 -9.675781 30.472656 -13.429688 32.703125 -18.609375 Z M 32.703125 -18.609375 "/></g></g></g><g fill="#EAF6FB" fill-opacity="1"><g transform="translate(389.024976, 96.561051)"><g><path d="M 34.140625 0.859375 L 33.953125 0.859375 C 32.804688 0.859375 32.164062 0.285156 32.03125 -0.859375 C 31.84375 -3.929688 31.71875 -6.953125 31.65625 -9.921875 C 31.59375 -12.898438 31.5625 -15.925781 31.5625 -19 C 31.5625 -21.675781 31.578125 -24.328125 31.609375 -26.953125 C 31.640625 -29.578125 31.65625 -32.234375 31.65625 -34.921875 C 30.945312 -31.273438 30.03125 -27.40625 28.90625 -23.3125 C 27.789062 -19.21875 26.53125 -15.410156 25.125 -11.890625 C 23.46875 -7.796875 21.644531 -4.789062 19.65625 -2.875 C 17.675781 -0.957031 15.726562 0 13.8125 0 C 10.800781 0 8.191406 -2.171875 5.984375 -6.515625 C 3.785156 -10.867188 2.6875 -16.976562 2.6875 -24.84375 C 2.6875 -29.832031 3.226562 -35.410156 4.3125 -41.578125 C 5.40625 -47.753906 7.257812 -54.519531 9.875 -61.875 C 10.132812 -62.695312 10.742188 -63.109375 11.703125 -63.109375 C 12.398438 -63.109375 12.941406 -62.835938 13.328125 -62.296875 C 13.710938 -61.753906 13.78125 -61.164062 13.53125 -60.53125 C 11.09375 -53.75 9.363281 -47.222656 8.34375 -40.953125 C 7.320312 -34.691406 6.8125 -29.035156 6.8125 -23.984375 C 6.8125 -17.972656 7.429688 -13.128906 8.671875 -9.453125 C 9.921875 -5.773438 11.539062 -3.9375 13.53125 -3.9375 C 15.3125 -3.9375 17.304688 -5.773438 19.515625 -9.453125 C 21.722656 -13.128906 23.914062 -19.15625 26.09375 -27.53125 C 27.6875 -33.726562 28.914062 -40.085938 29.78125 -46.609375 C 30.644531 -53.140625 31.140625 -59.410156 31.265625 -65.421875 C 31.265625 -66.628906 31.875 -67.234375 33.09375 -67.234375 L 33.28125 -67.234375 C 34.375 -67.234375 34.984375 -66.660156 35.109375 -65.515625 C 35.492188 -59.503906 35.6875 -53.429688 35.6875 -47.296875 C 35.6875 -42.492188 35.632812 -37.707031 35.53125 -32.9375 C 35.4375 -28.175781 35.390625 -23.398438 35.390625 -18.609375 C 35.390625 -15.671875 35.421875 -12.742188 35.484375 -9.828125 C 35.554688 -6.921875 35.6875 -4.03125 35.875 -1.15625 L 35.875 -0.953125 C 35.875 0.128906 35.296875 0.734375 34.140625 0.859375 Z M 34.140625 0.859375 "/></g></g></g><g fill="#EAF6FB" fill-opacity="1"><g transform="translate(430.748811, 96.561051)"><g><path d="M 14.671875 0 L 14.484375 0 C 13.265625 0 12.65625 -0.578125 12.65625 -1.734375 C 12.34375 -5.953125 12.132812 -10.15625 12.03125 -14.34375 C 11.9375 -18.53125 11.890625 -22.734375 11.890625 -26.953125 C 10.484375 -26.253906 9.046875 -25.597656 7.578125 -24.984375 C 6.109375 -24.378906 4.570312 -23.757812 2.96875 -23.125 C 2.457031 -22.863281 1.960938 -22.703125 1.484375 -22.640625 C 1.003906 -22.578125 0.539062 -22.546875 0.09375 -22.546875 C -1.1875 -22.546875 -2.175781 -22.894531 -2.875 -23.59375 C -3.582031 -24.300781 -3.9375 -25.101562 -3.9375 -26 C -3.9375 -26.445312 -3.835938 -26.894531 -3.640625 -27.34375 C -3.128906 -28.550781 -1.945312 -29.664062 -0.09375 -30.6875 C 1.757812 -31.71875 4.0625 -32.234375 6.8125 -32.234375 C 8.664062 -32.234375 10.390625 -32.007812 11.984375 -31.5625 C 12.179688 -42.625 12.851562 -53.625 14 -64.5625 C 12.789062 -64.363281 11.609375 -64.117188 10.453125 -63.828125 C 9.304688 -63.546875 8.1875 -63.242188 7.09375 -62.921875 C 7.03125 -62.859375 6.835938 -62.828125 6.515625 -62.828125 C 5.492188 -62.828125 4.890625 -63.273438 4.703125 -64.171875 C 4.640625 -64.234375 4.609375 -64.425781 4.609375 -64.75 C 4.609375 -65.644531 5.054688 -66.25 5.953125 -66.5625 C 7.359375 -67.007812 8.75 -67.394531 10.125 -67.71875 C 11.5 -68.039062 12.921875 -68.296875 14.390625 -68.484375 L 14.671875 -70.796875 C 14.992188 -71.941406 15.664062 -72.515625 16.6875 -72.515625 C 17.257812 -72.515625 17.722656 -72.304688 18.078125 -71.890625 C 18.429688 -71.472656 18.578125 -70.976562 18.515625 -70.40625 L 18.328125 -68.875 C 18.578125 -68.9375 18.828125 -68.96875 19.078125 -68.96875 C 19.335938 -68.96875 19.597656 -68.96875 19.859375 -68.96875 L 21.484375 -68.96875 C 28.066406 -68.96875 33.164062 -67.800781 36.78125 -65.46875 C 40.394531 -63.132812 42.203125 -60.046875 42.203125 -56.203125 C 42.203125 -52.429688 40.171875 -48.195312 36.109375 -43.5 C 32.054688 -38.800781 25.644531 -34.117188 16.875 -29.453125 C 17.769531 -28.941406 18.632812 -28.394531 19.46875 -27.8125 C 20.300781 -27.238281 21.289062 -26.503906 22.4375 -25.609375 C 23.59375 -24.710938 25.066406 -23.492188 26.859375 -21.953125 C 28.648438 -20.421875 30.90625 -18.441406 33.625 -16.015625 C 36.34375 -13.585938 39.75 -10.582031 43.84375 -7 C 44.28125 -6.550781 44.5 -6.070312 44.5 -5.5625 C 44.5 -5.238281 44.34375 -4.820312 44.03125 -4.3125 C 43.644531 -3.863281 43.164062 -3.640625 42.59375 -3.640625 C 42.007812 -3.640625 41.5625 -3.800781 41.25 -4.125 C 37.15625 -7.707031 33.75 -10.679688 31.03125 -13.046875 C 28.3125 -15.410156 26.117188 -17.328125 24.453125 -18.796875 C 22.796875 -20.265625 21.453125 -21.429688 20.421875 -22.296875 C 19.398438 -23.160156 18.550781 -23.832031 17.875 -24.3125 C 17.207031 -24.789062 16.492188 -25.253906 15.734375 -25.703125 C 15.734375 -21.742188 15.78125 -17.796875 15.875 -13.859375 C 15.96875 -9.929688 16.144531 -5.984375 16.40625 -2.015625 L 16.40625 -1.828125 C 16.40625 -0.609375 15.828125 0 14.671875 0 Z M 15.828125 -33.28125 C 17.867188 -34.375 20.148438 -35.71875 22.671875 -37.3125 C 25.203125 -38.914062 27.664062 -40.722656 30.0625 -42.734375 C 32.46875 -44.742188 34.4375 -46.867188 35.96875 -49.109375 C 37.5 -51.347656 38.265625 -53.617188 38.265625 -55.921875 C 38.265625 -58.410156 37.398438 -60.3125 35.671875 -61.625 C 33.953125 -62.9375 31.796875 -63.847656 29.203125 -64.359375 C 26.617188 -64.867188 24.046875 -65.125 21.484375 -65.125 L 19.65625 -65.125 C 19.40625 -65.125 19.132812 -65.125 18.84375 -65.125 C 18.5625 -65.125 18.257812 -65.09375 17.9375 -65.03125 C 17.363281 -59.726562 16.898438 -54.4375 16.546875 -49.15625 C 16.191406 -43.882812 15.953125 -38.59375 15.828125 -33.28125 Z M 0.1875 -26.28125 C 0.445312 -26.28125 0.894531 -26.375 1.53125 -26.5625 C 2.175781 -26.757812 3.582031 -27.367188 5.75 -28.390625 C 4.28125 -28.265625 3.066406 -27.960938 2.109375 -27.484375 C 1.148438 -27.003906 0.507812 -26.601562 0.1875 -26.28125 Z M 0.1875 -26.28125 "/></g></g></g></g></g></svg>
